<?xml version="1.0" encoding="iso-8859-1"?>
<!-- Uploaded to: SVG Repo, www.svgrepo.com, Generator: SVG Repo Mixer Tools -->
<svg height="800px" width="800px" version="1.1" id="Layer_1" xmlns="http://www.w3.org/2000/svg" xmlns:xlink="http://www.w3.org/1999/xlink" 
	 viewBox="0 0 492.035 492.035" xml:space="preserve">
<circle style="fill:#778587;" cx="246.017" cy="313.6" r="155.2"/>
<path style="fill:#5D6867;" d="M136.417,203.2c60.8-60.8,159.2-60.8,220,0s60.8,159.2,0,220"/>
<path style="fill:#182624;" d="M246.017,485.6c-95.2,0-172-77.6-172-172c0-95.2,77.6-172,172-172s172,77.6,172,172
	S341.217,485.6,246.017,485.6z M246.017,175.2c-76,0-138.4,62.4-138.4,138.4s62.4,138.4,138.4,138.4s138.4-62.4,138.4-138.4
	C384.417,236.8,322.017,175.2,246.017,175.2z"/>
<path style="fill:#66E515;" d="M288.417,27.2c-7.2-16.8-24-27.2-42.4-27.2s-34.4,10.4-42.4,27.2l-177.6,400
	c-10.4,23.2,0,50.4,23.2,60.8s50.4,0,60.8-23.2l136-304.8l42.4,95.2c-21.6,4-38.4,24-38.4,47.2c0,25.6,20.8,48,46.4,48h32.8
	l52.8,115.2c8,16.8,24.8,26.4,42.4,26.4c6.4,0,12.8-1.6,18.4-4.8c23.2-10.4,33.6-37.6,23.2-60.8L288.417,27.2z"/>
<path style="fill:#78F726;" d="M246.017,158.4c-60,0-112,34.4-137.6,84l-7.2,15.2c-6.4,17.6-10.4,36-10.4,55.2
	c0,40,15.2,76.8,40,104l115.2-257.6l42.4,95.2c-21.6,4-38.4,24-38.4,47.2c0,25.6,20.8,48,46.4,48h32.8l32,69.6
	c24.8-27.2,40-64.8,40-104.8c0-19.2-4-38.4-10.4-55.2l-8-17.6C357.217,192,306.017,158.4,246.017,158.4z"/>
</svg>